<svg preserveAspectRatio="none" width="100%" height="100%" overflow="visible" style="display: block;" viewBox="0 0 47.7646 54.7704" fill="none" xmlns="http://www.w3.org/2000/svg">
<g id="Group 1">
<circle id="Ellipse 1" cx="23.7502" cy="27.2038" r="12.4036" fill="var(--fill-0, #F7AB20)"/>
<path id="Vector" d="M19.4959 9.33381C19.1682 9.33381 18.8755 9.16382 18.7108 8.88167C18.5478 8.59777 18.5478 8.25954 18.7108 7.97564L23.0534 0.452223C23.2164 0.16832 23.5108 8.16539e-05 23.8385 8.16539e-05C24.1663 8.16539e-05 24.4589 0.170073 24.6237 0.452223L28.9663 7.97389C29.1293 8.25779 29.1293 8.59602 28.9663 8.87992C28.8033 9.16382 28.5089 9.33206 28.1812 9.33206H19.4959V9.33381Z" fill="var(--fill-0, #F7AB20)"/>
<path id="Vector_2" d="M23.8385 54.7704C23.5108 54.7704 23.2182 54.6004 23.0534 54.3183L18.7108 46.7966C18.5478 46.5127 18.5478 46.1745 18.7108 45.8906C18.8738 45.6067 19.1682 45.4384 19.4959 45.4384H28.1812C28.5089 45.4384 28.8016 45.6084 28.9663 45.8906C29.1293 46.1745 29.1293 46.5127 28.9663 46.7966L24.6237 54.3183C24.4607 54.6022 24.1663 54.7704 23.8385 54.7704Z" fill="var(--fill-0, #F7AB20)"/>
<g id="Group">
<path id="Vector_3" d="M42.4272 22.5739C42.0995 22.5739 41.8068 22.4039 41.6421 22.1218L37.2994 14.6001C37.1364 14.3162 37.1364 13.978 37.2994 13.6941C37.4624 13.4102 37.7568 13.2419 38.0845 13.2419H46.7698C47.0975 13.2419 47.3902 13.4119 47.5549 13.6941C47.7179 13.978 47.7179 14.3162 47.5549 14.6001L43.2123 22.1218C43.0493 22.4057 42.7549 22.5739 42.4272 22.5739Z" fill="var(--fill-0, #F7AB20)"/>
<path id="Vector_4" d="M46.7698 13.3277C47.0659 13.3277 47.3306 13.4801 47.4778 13.736C47.625 13.9919 47.625 14.2985 47.4778 14.5544L43.1351 22.0761C42.9879 22.3319 42.7215 22.4844 42.4271 22.4844C42.1327 22.4844 41.8663 22.3319 41.7191 22.0761L37.3765 14.5544C37.2292 14.2985 37.2292 13.9919 37.3765 13.736C37.5237 13.4801 37.79 13.3277 38.0845 13.3277H46.7698ZM46.7698 13.1524H38.0845C37.3204 13.1524 36.8419 13.9796 37.224 14.642L41.5666 22.1637C41.7577 22.4949 42.0924 22.6596 42.4271 22.6596C42.7618 22.6596 43.0966 22.4949 43.2876 22.1637L47.6302 14.642C48.0123 13.9796 47.5338 13.1524 46.7698 13.1524Z" fill="var(--fill-0, #F7AB20)"/>
</g>
<path id="Vector_5" d="M0.907349 41.5304C0.579634 41.5304 0.286969 41.3604 0.122236 41.0783C-0.0407453 40.7944 -0.0407453 40.4561 0.122236 40.1722L4.46489 32.6506C4.62787 32.3667 4.92229 32.1984 5.25 32.1984C5.57772 32.1984 5.87038 32.3684 6.03512 32.6506L10.3778 40.1722C10.5408 40.4561 10.5408 40.7944 10.3778 41.0783C10.2148 41.3622 9.92037 41.5304 9.59266 41.5304H0.907349Z" fill="var(--fill-0, #F7AB20)"/>
<path id="Vector_6" d="M38.0845 41.5304C37.7568 41.5304 37.4641 41.3604 37.2994 41.0783C37.1364 40.7944 37.1364 40.4561 37.2994 40.1722L41.642 32.6506C41.805 32.3667 42.0994 32.1984 42.4272 32.1984C42.7549 32.1984 43.0475 32.3684 43.2123 32.6506L47.5549 40.1722C47.7179 40.4561 47.7179 40.7944 47.5549 41.0783C47.3919 41.3622 47.0975 41.5304 46.7698 41.5304H38.0845Z" fill="var(--fill-0, #F7AB20)"/>
<path id="Vector_7" d="M5.25 22.5739C4.92229 22.5739 4.62962 22.4039 4.46489 22.1218L0.122236 14.5984C-0.0407453 14.3145 -0.0407453 13.9762 0.122236 13.6923C0.285217 13.4084 0.579634 13.2402 0.907349 13.2402H9.59266C9.92037 13.2402 10.213 13.4102 10.3778 13.6923C10.5408 13.9762 10.5408 14.3145 10.3778 14.5984L6.03512 22.12C5.87214 22.4039 5.57772 22.5722 5.25 22.5722V22.5739Z" fill="var(--fill-0, #F7AB20)"/>
<path id="Subtract" d="M30.3183 21.4593C33.7422 22.8728 36.1523 26.2437 36.1523 30.1781C36.1522 35.3857 31.9302 39.6068 26.7226 39.6068C22.7879 39.6067 19.418 37.1963 18.0048 33.7718C24.6369 33.4027 29.9486 28.0913 30.3183 21.4593Z" fill="var(--fill-0, white)"/>
</g>
</svg>
