<svg preserveAspectRatio="none" width="100%" height="100%" overflow="visible" style="display: block;" viewBox="0 0 46.0688 49.1666" fill="none" xmlns="http://www.w3.org/2000/svg">
<g id="Group 8">
<g id="Group">
<path id="Vector" d="M35.777 8.93667L24.0842 12.1588L11.545 15.6135L1.98827 18.2479L0.0861687 11.3443C-0.263345 10.0748 0.481894 8.76335 1.75141 8.41384L13.8761 5.07324L26.4152 1.6171L31.9728 0.0861684C33.2423 -0.263345 34.5537 0.481899 34.9032 1.75141L36.5222 7.62671C36.6797 8.19431 36.3446 8.78213 35.777 8.93811V8.93667Z" fill="var(--fill-0, #FFE2EE)"/>
<path id="Vector_2" d="M26.4152 1.61575L24.0856 12.1589L11.5465 15.6136L13.8761 5.07189L26.4152 1.61575Z" fill="var(--fill-0, #890157)"/>
</g>
<path id="Vector_3" d="M4.46825 16.057H35.1157C36.7578 16.057 38.0909 17.3901 38.0909 19.0322V37.9045C38.0909 39.9005 36.4704 41.5224 34.473 41.5224H5.59479C3.5988 41.5224 1.97688 39.902 1.97688 37.9045V18.5484C1.97688 17.1735 3.0933 16.057 4.46825 16.057Z" fill="var(--fill-0, #890157)"/>
<g id="Group_2">
<path id="Vector_4" d="M39.1122 36.1505H42.1158C44.2965 36.1505 46.0687 37.9207 46.0687 40.1034V41.4807C46.0687 43.926 44.0825 45.9122 41.6372 45.9122H39.1122C36.6669 45.9122 34.6807 43.926 34.6807 41.4807V40.5819C34.6807 38.1367 36.6669 36.1505 39.1122 36.1505Z" fill="var(--fill-0, #FDB43D)"/>
<path id="Vector_5" d="M22.8435 39.405H25.8471C28.0278 39.405 29.8 41.1752 29.8 43.3579V44.7352C29.8 47.1805 27.8138 49.1666 25.3685 49.1666H22.8435C20.3982 49.1666 18.412 47.1805 18.412 44.7352V43.8364C18.412 41.3911 20.3982 39.405 22.8435 39.405Z" fill="var(--fill-0, #FDB43D)"/>
<path id="Vector_6" d="M46.0688 26.4782H42.8142V41.0313H46.0688V26.4782Z" fill="var(--fill-0, #FDB43D)"/>
<path id="Vector_7" d="M29.7999 26.4782H26.5453V44.2858H29.7999V26.4782Z" fill="var(--fill-0, #FDB43D)"/>
<path id="Vector_8" d="M29.7396 23.1362H42.8745C44.637 23.1362 46.0687 24.5679 46.0687 26.3304V26.9296C46.0687 28.4275 44.8529 29.6453 43.353 29.6453H29.261C27.7631 29.6453 26.5453 28.4294 26.5453 26.9296V26.3304C26.5453 24.5679 27.9771 23.1362 29.7396 23.1362Z" fill="var(--fill-0, #FDB43D)"/>
</g>
</g>
</svg>
