<svg preserveAspectRatio="none" width="100%" height="100%" overflow="visible" style="display: block;" viewBox="0 0 74 74" fill="none" xmlns="http://www.w3.org/2000/svg">
<g id="Frame 2147215629">
<rect width="74" height="74" rx="37" fill="var(--fill-0, #2AC44E)"/>
<g id="Layer_1" clip-path="url(#clip0_0_4628)">
<path id="Vector" d="M29.7761 42.1365L28.3553 42.1365C27.5299 42.1365 26.7356 42.4653 26.151 43.0498L16.4598 52.7411C15.9185 53.2824 15.0417 53.2824 14.5004 52.7411L12.6764 50.9171C12.1351 50.3758 12.1351 49.499 12.6764 48.9577L22.3609 39.2732C22.9495 38.6846 23.281 37.8849 23.281 37.0513L23.281 35.6414C23.281 34.8755 23.9007 34.2557 24.6666 34.2557L29.7761 34.2557C30.542 34.2557 31.1617 34.8755 31.1617 35.6414L31.1617 40.7508C31.1617 41.5167 30.542 42.1365 29.7761 42.1365Z" fill="var(--fill-0, white)"/>
<path id="Vector_2" d="M29.6166 42.8808L22.5382 35.8025C21.7561 35.0203 21.7656 33.7416 22.5599 32.9473L45.7136 9.79356C46.2549 9.2523 47.0519 9.0561 47.7718 9.28613L48.3049 9.45663C51.9503 10.623 54.796 13.4687 55.9624 17.1141L56.1329 17.6472C56.3643 18.3685 56.1667 19.1641 55.6255 19.7054L32.4717 42.8591C31.6774 43.6534 30.3987 43.6629 29.6166 42.8808Z" fill="var(--fill-0, #FFE5D7)"/>
</g>
<ellipse id="Ellipse 4" cx="49.8267" cy="44.0299" rx="7.15333" ry="7.03" fill="var(--fill-0, #E30513)"/>
</g>
<defs>
<clipPath id="clip0_0_4628">
<rect width="14.0174" height="55.8248" fill="white" transform="translate(48.1074 7.39984) rotate(45)"/>
</clipPath>
</defs>
</svg>
