<svg preserveAspectRatio="none" width="100%" height="100%" overflow="visible" style="display: block;" viewBox="0 0 74 74" fill="none" xmlns="http://www.w3.org/2000/svg">
<g id="Frame 4">
<g clip-path="url(#clip0_23134_33491)">
<rect width="74" height="74" rx="37" fill="var(--fill-0, #5D00B5)"/>
<path id="Vector" d="M37.3699 58.7068C50.1074 58.7068 60.4332 48.381 60.4332 35.6435C60.4332 22.906 50.1074 12.5802 37.3699 12.5802C24.6324 12.5802 14.3066 22.906 14.3066 35.6435C14.3066 48.381 24.6324 58.7068 37.3699 58.7068Z" fill="var(--fill-0, #E30513)"/>
<path id="Vector_2" d="M37.0926 51.5533C30.6797 51.5918 23.998 46.0919 26.0214 37.2306C26.881 33.4692 28.7922 30.2972 31.3089 27.457C32.8951 25.6661 34.6788 24.0615 36.6259 22.6738C36.9213 22.4725 37.134 22.3244 37.4973 22.5909C42.0522 25.9495 45.8036 29.9537 47.6912 35.4269C48.4976 37.7637 48.8727 40.1834 48.3558 42.6445C47.2717 47.8897 42.6016 51.5592 37.0926 51.5533Z" fill="var(--fill-0, #F7AB20)"/>
<path id="Vector_3" d="M37.1138 51.5533C33.0393 51.5773 28.7944 48.0824 30.0807 42.4515C30.6252 40.0515 31.8397 38.0445 33.4402 36.2385C34.446 35.1 35.5781 34.0804 36.8146 33.1996C36.9941 33.0706 37.1377 32.9746 37.3681 33.1456C40.2609 35.2816 42.6451 37.8225 43.8447 41.3025C44.3967 42.7651 44.5405 44.351 44.2605 45.8894C43.5815 49.2194 40.6139 51.5563 37.1138 51.5533Z" fill="var(--fill-0, white)"/>
<rect id="Rectangle 1" x="29.1065" y="53.5268" width="16.0333" height="25.16" rx="2.22" fill="var(--fill-0, #FFEBA5)"/>
</g>
</g>
<defs>
<clipPath id="clip0_23134_33491">
<rect width="74" height="74" rx="37" fill="white"/>
</clipPath>
</defs>
</svg>
